<?xml version="1.0" encoding="UTF-8"?>
<svg version="1.1" viewBox="0 0 45 45" xmlns="http://www.w3.org/2000/svg">
 <g fill-rule="evenodd" stroke="#000" stroke-linecap="round" stroke-linejoin="round" stroke-width="1.5">
  <path d="m22.5 11.63v-5.63" fill="none" stroke="#000" stroke-linejoin="miter"/>
  <path d="m22.5 25s4.5-7.5 3-10.5c0 0-1-2.5-3-2.5s-3 2.5-3 2.5c-1.5 3 3 10.5 3 10.5" stroke-linecap="butt" stroke-linejoin="miter"/>
  <path d="m12.5 37c5.5 3.5 14.5 3.5 20 0v-7s9-4.5 6-10.5c-4-6.5-13.5-3.5-16 4v3.5-3.5c-2.5-7.5-12-10.5-16-4-3 6 6 10.5 6 10.5v7" stroke="#000"/>
  <g fill="none">
   <path d="m20 8h5" stroke="#000" stroke-linejoin="miter"/>
   <path d="m32 29.5s8.5-4 6.03-9.65c-3.88-5.85-13.03-1.85-15.53 4.65v2.1-2.1c-2.5-6.5-11.65-10.5-15.53-4.65-2.47 5.65 6.03 9.65 6.03 9.65" stroke="#fff"/>
   <path d="m12.5 30c5.5-3 14.5-3 20 0m-20 3.5c5.5-3 14.5-3 20 0m-20 3.5c5.5-3 14.5-3 20 0" stroke="#fff"/>
  </g>
 </g>
</svg>