<?xml version="1.0" encoding="UTF-8"?>
<svg version="1.1" viewBox="0 0 45 45" xmlns="http://www.w3.org/2000/svg">
 <g fill="none" fill-rule="evenodd" stroke="#000" stroke-linecap="round" stroke-linejoin="round" stroke-width="1.5">
  <g stroke-linejoin="miter">
   <path d="m22.5 11.63v-5.63" fill="none"/>
   <path d="m20 8h5" fill="none"/>
   <path d="m22.5 25s4.5-7.5 3-10.5c0 0-1-2.5-3-2.5s-3 2.5-3 2.5c-1.5 3 3 10.5 3 10.5" fill="#fff" stroke-linecap="butt"/>
  </g>
  <path d="m12.5 37c5.5 3.5 14.5 3.5 20 0v-7s9-4.5 6-10.5c-4-6.5-13.5-3.5-16 4v3.5-3.5c-2.5-7.5-12-10.5-16-4-3 6 6 10.5 6 10.5v7" fill="#fff"/>
  <g fill="none">
   <path d="m12.5 30c5.5-3 14.5-3 20 0"/>
   <path d="m12.5 33.5c5.5-3 14.5-3 20 0"/>
   <path d="m12.5 37c5.5-3 14.5-3 20 0"/>
  </g>
 </g>
</svg>