<?xml version="1.0" encoding="UTF-8"?>
<svg version="1.1" viewBox="0 0 45 45" xmlns="http://www.w3.org/2000/svg">
 <g fill-rule="evenodd" stroke="#000" stroke-linecap="round" stroke-linejoin="round" stroke-width="1.5">
  <path d="m22 10c10.5 1 16.5 8 16 29h-23c0-9 10-6.5 8-21" stroke="#000"/>
  <path d="m24 18c0.38 2.91-5.55 7.37-8 9-3 2-2.82 4.34-5 4-1.042-0.94 1.41-3.04 0-3-1 0 0.19 1.23-1 2-1 0-4.003 1-4-4 0-2 6-12 6-12s1.89-1.9 2-3.5c-0.73-0.994-0.5-2-0.5-3 1-1 3 2.5 3 2.5h2s0.78-1.992 2.5-3c1 0 1 3 1 3" stroke="#000"/>
  <g fill="#fff">
   <path d="m9.5 25.5a0.5 0.5 0 1 1-1 0 0.5 0.5 0 1 1 1 0z" stroke="#fff"/>
   <path transform="matrix(.866 .5 -.5 .866 9.693 -5.173)" d="m15 15.5a0.5 1.5 0 1 1-1 0 0.5 1.5 0 1 1 1 0z" stroke="#fff"/>
   <path d="m24.55 10.4-0.45 1.45 0.5 0.15c3.15 1 5.65 2.49 7.9 6.75s3.25 10.31 2.75 20.25l-0.05 0.5h2.25l0.05-0.5c0.5-10.06-0.88-16.85-3.25-21.34s-5.79-6.64-9.19-7.16l-0.51-0.1z" stroke="none"/>
  </g>
 </g>
</svg>