<?xml version="1.0" encoding="UTF-8"?>
<svg version="1.1" viewBox="0 0 45 45" xmlns="http://www.w3.org/2000/svg">
 <g fill="#fff" fill-rule="evenodd" stroke="#000" stroke-linecap="round" stroke-linejoin="round" stroke-width="1.5">
  <path transform="translate(-1,-1)" d="m9 13a2 2 0 1 1-4 0 2 2 0 1 1 4 0z"/>
  <path transform="translate(15.5,-5.5)" d="m9 13a2 2 0 1 1-4 0 2 2 0 1 1 4 0z"/>
  <path transform="translate(32,-1)" d="m9 13a2 2 0 1 1-4 0 2 2 0 1 1 4 0z"/>
  <path transform="translate(7,-4)" d="m9 13a2 2 0 1 1-4 0 2 2 0 1 1 4 0z"/>
  <path transform="translate(24,-4)" d="m9 13a2 2 0 1 1-4 0 2 2 0 1 1 4 0z"/>
  <path d="m9 26c8.5-1.5 18.5-1.5 27 0l2-12-7 11v-14l-5.5 13.5-3-15-3 15-5.5-13.5v14l-7-11 2 12z" stroke-linecap="butt"/>
  <path d="m9 26c0 2 1.5 2 2.5 4 1 1.5 1 1 0.5 3.5-1.5 1-1 2.5-1 2.5-1.5 1.5 0 2.5 0 2.5 6.5 1 16.5 1 23 0 0 0 1.5-1 0-2.5 0 0 0.5-1.5-1-2.5-0.5-2.5-0.5-2 0.5-3.5 1-2 2.5-2 2.5-4-8.5-1.5-18.5-1.5-27 0z" stroke-linecap="butt"/>
  <path d="m11.5 30c3.5-1 18.5-1 22 0" fill="none"/>
  <path d="m12 33.5c6-1 15-1 21 0" fill="none"/>
 </g>
</svg>